<svg width="45" height="45" viewBox="0 0 45 45" fill="none" xmlns="http://www.w3.org/2000/svg">
<path d="M9.82843 4.17157C8.26633 2.60948 5.73367 2.60948 4.17157 4.17157C2.60948 5.73367 2.60948 8.26633 4.17157 9.82843L9.82843 4.17157ZM40.9411 44.9411C43.1503 44.9411 44.9411 43.1503 44.9411 40.9411V4.94113C44.9411 2.73199 43.1503 0.941126 40.9411 0.941126C38.732 0.941126 36.9411 2.73199 36.9411 4.94113V36.9411H4.94113C2.73199 36.9411 0.941126 38.732 0.941126 40.9411C0.941126 43.1503 2.73199 44.9411 4.94113 44.9411H40.9411ZM4.17157 9.82843L38.1127 43.7696L43.7696 38.1127L9.82843 4.17157L4.17157 9.82843Z" fill="white"/>
</svg>
