<svg width="85" height="20" viewBox="0 0 85 20" fill="none" xmlns="http://www.w3.org/2000/svg">
<path d="M0.321023 19.5V2.04545H12.2358V5.47159H4.53977V9.05114H11.4773V12.4858H4.53977V19.5H0.321023ZM13.4001 2.04545H18.6245L23.0563 12.8523H23.2609L27.6927 2.04545H32.9171V19.5H28.8092V8.77841H28.6643L24.4711 19.3892H21.8461L17.6529 8.71875H17.508V19.5H13.4001V2.04545ZM38.2789 19.7216C37.4436 19.7216 36.7022 19.5824 36.0544 19.304C35.4124 19.0199 34.9039 18.5937 34.5289 18.0256C34.1595 17.4517 33.9749 16.733 33.9749 15.8693C33.9749 15.142 34.1027 14.5284 34.3584 14.0284C34.6141 13.5284 34.9664 13.1222 35.4152 12.8097C35.8641 12.4972 36.3811 12.2614 36.9664 12.1023C37.5516 11.9375 38.1766 11.8267 38.8414 11.7699C39.5857 11.7017 40.1851 11.6307 40.6397 11.5568C41.0942 11.4773 41.4238 11.3665 41.6283 11.2244C41.8385 11.0767 41.9436 10.8693 41.9436 10.6023V10.5597C41.9436 10.1222 41.7931 9.78409 41.4919 9.54545C41.1908 9.30682 40.7845 9.1875 40.2732 9.1875C39.722 9.1875 39.2789 9.30682 38.9436 9.54545C38.6084 9.78409 38.3953 10.1136 38.3044 10.5341L34.4607 10.3977C34.5743 9.60227 34.8669 8.89205 35.3385 8.26705C35.8158 7.63636 36.4692 7.14205 37.2988 6.78409C38.134 6.42045 39.1368 6.23864 40.3073 6.23864C41.1425 6.23864 41.9124 6.33807 42.6169 6.53693C43.3215 6.73011 43.9351 7.0142 44.4578 7.3892C44.9806 7.75852 45.384 8.21307 45.6681 8.75284C45.9578 9.29261 46.1027 9.90909 46.1027 10.6023V19.5H42.1823V17.6761H42.08C41.847 18.1193 41.5488 18.4943 41.1851 18.8011C40.8272 19.108 40.4039 19.3381 39.9152 19.4915C39.4323 19.6449 38.8868 19.7216 38.2789 19.7216ZM39.5658 16.9943C40.0147 16.9943 40.4181 16.9034 40.776 16.7216C41.1397 16.5398 41.4294 16.2898 41.6453 15.9716C41.8613 15.6477 41.9692 15.2727 41.9692 14.8466V13.6023C41.8499 13.6648 41.705 13.7216 41.5345 13.7727C41.3698 13.8239 41.188 13.8722 40.9891 13.9176C40.7902 13.9631 40.5857 14.0028 40.3755 14.0369C40.1652 14.071 39.9635 14.1023 39.7703 14.1307C39.3783 14.1932 39.0431 14.2898 38.7647 14.4205C38.4919 14.5511 38.2817 14.7216 38.134 14.9318C37.9919 15.1364 37.9209 15.3807 37.9209 15.6648C37.9209 16.0966 38.0743 16.4261 38.3811 16.6534C38.6936 16.8807 39.0885 16.9943 39.5658 16.9943ZM47.691 19.5V6.40909H51.7393V8.79545H51.8757C52.1143 7.93182 52.5035 7.28977 53.0433 6.86932C53.5831 6.44318 54.2109 6.23011 54.9268 6.23011C55.12 6.23011 55.3189 6.24432 55.5234 6.27273C55.728 6.29545 55.9183 6.33239 56.0944 6.38352V10.0057C55.8956 9.9375 55.6342 9.88352 55.3103 9.84375C54.9922 9.80398 54.7081 9.78409 54.4581 9.78409C53.9637 9.78409 53.5177 9.89489 53.12 10.1165C52.728 10.3324 52.4183 10.6364 52.191 11.0284C51.9694 11.4148 51.8586 11.8693 51.8586 12.392V19.5H47.691ZM64.8312 6.40909V9.47727H56.5726V6.40909H64.8312ZM58.3028 3.27273H62.4704V15.3835C62.4704 15.6392 62.5101 15.8466 62.5897 16.0057C62.6749 16.1591 62.7971 16.2699 62.9562 16.3381C63.1153 16.4006 63.3056 16.4318 63.5272 16.4318C63.6863 16.4318 63.8539 16.4176 64.03 16.3892C64.2118 16.3551 64.3482 16.3267 64.4391 16.304L65.0698 19.3125C64.8709 19.3693 64.5897 19.4403 64.2261 19.5256C63.8681 19.6108 63.4391 19.6648 62.9391 19.6875C61.9618 19.733 61.1238 19.6193 60.4249 19.3466C59.7317 19.0682 59.2005 18.6364 58.8312 18.0511C58.4675 17.4659 58.2914 16.7301 58.3028 15.8438V3.27273ZM65.9976 19.5V6.40909H70.1652V19.5H65.9976ZM68.0857 4.88352C67.5004 4.88352 66.9976 4.69034 66.5771 4.30398C66.1567 3.91193 65.9464 3.44034 65.9464 2.8892C65.9464 2.34375 66.1567 1.87784 66.5771 1.49148C66.9976 1.09943 67.5004 0.903408 68.0857 0.903408C68.6766 0.903408 69.1794 1.09943 69.5942 1.49148C70.0146 1.87784 70.2249 2.34375 70.2249 2.8892C70.2249 3.44034 70.0146 3.91193 69.5942 4.30398C69.1794 4.69034 68.6766 4.88352 68.0857 4.88352ZM76.0255 12.0341V19.5H71.8579V6.40909H75.821V8.8125H75.9659C76.2556 8.01136 76.7499 7.38352 77.4488 6.92898C78.1477 6.46875 78.9801 6.23864 79.946 6.23864C80.8664 6.23864 81.6647 6.44602 82.3409 6.86079C83.0227 7.26989 83.5511 7.84375 83.9261 8.58239C84.3068 9.31534 84.4943 10.1733 84.4886 11.1562V19.5H80.321V11.9744C80.3266 11.2472 80.142 10.679 79.767 10.2699C79.3977 9.8608 78.8835 9.65625 78.2244 9.65625C77.7869 9.65625 77.4005 9.75284 77.0653 9.94602C76.7357 10.1335 76.4801 10.4034 76.2982 10.7557C76.1221 11.108 76.0312 11.5341 76.0255 12.0341Z" fill="url(#paint0_linear_156_14)"/>
<defs>
<linearGradient id="paint0_linear_156_14" x1="-1" y1="10.9065" x2="98.9372" y2="35.8005" gradientUnits="userSpaceOnUse">
<stop stop-color="#94E4E2"/>
<stop offset="0.702875" stop-color="#BCEEED"/>
<stop offset="1" stop-color="white"/>
</linearGradient>
</defs>
</svg>
