<svg width="404" height="119" viewBox="0 0 404 119" fill="none" xmlns="http://www.w3.org/2000/svg">
<path d="M52.608 78H43.456V35.12H74.496V43.248H52.608V53.872H70.848V62H52.608V78ZM87.483 78H78.331V35.12H98.235C103.099 35.12 106.982 36.2507 109.883 38.512C112.827 40.7733 114.299 44.1013 114.299 48.496C114.299 52.1653 113.19 55.0453 110.971 57.136C108.752 59.184 105.808 60.4213 102.139 60.848C103.718 61.2747 105.019 61.9787 106.043 62.96C107.11 63.8987 108.155 65.2 109.179 66.864L115.963 78H105.403L98.171 65.84C97.3177 64.3893 96.3363 63.3867 95.227 62.832C94.1603 62.2347 92.6883 61.936 90.811 61.936H87.483V78ZM97.915 43.248H87.483V54.576H97.915C102.438 54.576 104.699 52.6987 104.699 48.944C104.699 45.1467 102.438 43.248 97.915 43.248ZM154.734 72.24C150.723 76.464 145.56 78.576 139.246 78.576C132.931 78.576 127.747 76.464 123.694 72.24C119.683 68.016 117.678 62.768 117.678 56.496C117.678 50.224 119.683 44.9973 123.694 40.816C127.747 36.592 132.931 34.48 139.246 34.48C145.56 34.48 150.723 36.592 154.734 40.816C158.787 44.9973 160.814 50.224 160.814 56.496C160.814 62.768 158.787 68.016 154.734 72.24ZM130.414 66.096C132.462 68.4853 135.406 69.68 139.246 69.68C143.086 69.68 146.03 68.4853 148.078 66.096C150.126 63.664 151.15 60.464 151.15 56.496C151.15 52.528 150.126 49.3493 148.078 46.96C146.03 44.528 143.086 43.312 139.246 43.312C135.406 43.312 132.462 44.528 130.414 46.96C128.366 49.392 127.342 52.5707 127.342 56.496C127.342 60.464 128.366 63.664 130.414 66.096ZM175.483 78H166.331V35.12H175.227L190.459 57.52L194.363 64.24L193.787 54.128V35.12H202.939V78H194.235L178.619 55.408L174.779 49.072L175.483 59.696V78ZM227.411 78H218.259V43.248H205.459V35.12H240.211V43.248H227.411V78ZM274.257 78H242.769V35.12H274.257V43.248H251.921V52.272H270.609V60.4H251.921V69.872H274.257V78ZM288.233 78H279.081V35.12H287.977L303.209 57.52L307.113 64.24L306.537 54.128V35.12H315.689V78H306.985L291.369 55.408L287.529 49.072L288.233 59.696V78ZM341.113 78H323.769V35.12H340.985C347.427 35.12 352.483 37.0613 356.153 40.944C359.822 44.8267 361.657 50.032 361.657 56.56C361.657 63.088 359.822 68.2933 356.153 72.176C352.526 76.0587 347.513 78 341.113 78ZM340.217 43.248H332.921V69.872H340.345C348.153 69.872 352.057 65.4347 352.057 56.56C352.057 47.6853 348.11 43.248 340.217 43.248Z" fill="url(#paint0_linear_161_4)"/>
<rect x="1.5" y="1.5" width="401" height="116" rx="58" stroke="url(#paint1_linear_161_4)" stroke-width="3"/>
<defs>
<linearGradient id="paint0_linear_161_4" x1="40" y1="59.2452" x2="394.198" y2="179.863" gradientUnits="userSpaceOnUse">
<stop stop-color="#94E4E2"/>
<stop offset="0.514951" stop-color="#BCEEED"/>
<stop offset="1" stop-color="white"/>
</linearGradient>
<linearGradient id="paint1_linear_161_4" x1="3.76254e-07" y1="59.4999" x2="404" y2="59.4999" gradientUnits="userSpaceOnUse">
<stop stop-color="#6F5BC6"/>
<stop offset="1" stop-color="#B6A4F3"/>
</linearGradient>
</defs>
</svg>
