<svg width="46" height="48" viewBox="0 0 46 48" fill="none" xmlns="http://www.w3.org/2000/svg">
<path d="M41.2174 0H4.17391C1.86872 0 0 1.86872 0 4.17391V43.8261C0 46.1313 1.86872 48 4.17391 48H41.2174C43.5226 48 45.3913 46.1313 45.3913 43.8261V4.17391C45.3913 1.86872 43.5226 0 41.2174 0Z" fill="#C4AFF0"/>
<path d="M10.9592 8.03757C11.0037 8.03757 33.7582 7.72587 33.8918 7.85945C34.4707 8.39381 34.7824 14.0936 34.7824 20.5503C32.9122 18.5465 29.5725 15.9193 24.6297 15.2068C23.1157 14.8506 21.9134 14.9841 21.9134 14.9841C21.0674 15.0732 20.444 15.7411 20.533 16.5872C20.5775 17.2997 21.1564 17.834 21.8244 17.9676C21.9579 17.9676 22.1361 18.0121 22.3142 18.0121C22.804 18.0121 23.2048 18.0567 23.6501 18.1457C25.3867 18.591 27.9249 20.4167 26.7671 27.0516C23.561 26.1165 21.1119 26.7399 20.5775 27.5414C19.5088 29.0554 20.3994 34.5771 21.3345 40.3213C16.0801 40.3213 11.1373 40.0987 10.8256 39.6089C9.93503 38.0058 10.8256 8.17116 10.9592 8.03757Z" fill="#111111"/>
</svg>
