<svg width="180" height="180" viewBox="0 0 180 180" fill="none" xmlns="http://www.w3.org/2000/svg">
<rect x="2" y="2" width="176" height="176" rx="88" fill="#140941" fill-opacity="0.35"/>
<path d="M67.8662 86.6637C66.2094 86.6637 64.8662 88.0068 64.8662 89.6637C64.8662 91.3206 66.2094 92.6637 67.8662 92.6637L67.8662 86.6637ZM114.988 91.785C116.159 90.6134 116.159 88.7139 114.988 87.5424L95.8957 68.4505C94.7241 67.2789 92.8246 67.2789 91.653 68.4505C90.4814 69.6221 90.4814 71.5216 91.653 72.6931L108.624 89.6637L91.653 106.634C90.4814 107.806 90.4814 109.705 91.653 110.877C92.8246 112.048 94.7241 112.048 95.8957 110.877L114.988 91.785ZM67.8662 92.6637L112.866 92.6637L112.866 86.6637L67.8662 86.6637L67.8662 92.6637Z" fill="white"/>
<path d="M33.7428 83.19L33.5369 86.3292L28.5097 85.9996L18.4615 90.9629L18.7206 87.0114L22.5281 85.4311L26.0038 84.2039L22.74 82.5348L19.1552 80.3816L19.4028 76.6058L28.7156 82.8604L33.7428 83.19Z" fill="white"/>
<path d="M37.6663 62.5745C38.517 64.3871 38.5474 66.3043 37.7574 68.3261C36.9674 70.3479 35.6427 71.7435 33.7832 72.5129C31.929 73.2686 29.9978 73.2541 27.9897 72.4695C25.9815 71.6848 24.5589 70.3889 23.7219 68.5817C22.8766 66.7555 22.8489 64.8315 23.6388 62.8096C24.4288 60.7878 25.7509 59.3991 27.605 58.6434C29.4509 57.8687 31.3779 57.8736 33.386 58.6583C35.3942 59.4429 36.821 60.7483 37.6663 62.5745ZM32.6567 69.5926C33.6779 69.2358 34.4287 68.4427 34.9091 67.2132C35.3895 65.9837 35.3753 64.8916 34.8665 63.937C34.344 62.977 33.4475 62.2489 32.1771 61.7525C30.9066 61.2561 29.7608 61.1863 28.7395 61.5431C27.7047 61.8946 26.947 62.685 26.4666 63.9145C25.9863 65.144 26.0073 66.2387 26.5298 67.1987C27.0522 68.1587 27.9419 68.8842 29.1987 69.3753C30.4691 69.8717 31.6218 69.9441 32.6567 69.5926Z" fill="white"/>
<path d="M46.4195 53.938C45.1107 55.5581 43.7116 56.4264 42.2222 56.543C40.7328 56.6597 39.0982 55.9991 37.3184 54.5613L30.8837 49.3631L32.8606 46.9159L39.3295 52.1417C40.3107 52.9343 41.1759 53.3221 41.925 53.3051C42.6833 53.2766 43.3988 52.8459 44.0717 52.0131C44.7537 51.1688 45.0254 50.389 44.8868 49.6737C44.746 48.9378 44.1793 48.1689 43.1867 47.367L36.7178 42.1412L38.6948 39.694L45.1294 44.8921C46.9206 46.3391 47.9158 47.803 48.1149 49.2836C48.3118 50.7437 47.7467 52.2951 46.4195 53.938Z" fill="white"/>
<path d="M55.8619 44.6591L53.2634 46.4326L44.954 34.258L50.6052 30.4009C51.9862 29.4583 53.3077 29.027 54.5696 29.1068C55.8437 29.1783 56.9066 29.838 57.7582 31.0857C58.4692 32.1275 58.7123 33.1602 58.4875 34.1837C58.2545 35.1951 57.6584 36.1169 56.6993 36.9491C57.2302 36.7644 57.7361 36.7121 58.217 36.7923C58.7017 36.8521 59.2507 37.019 59.8639 37.293L63.948 39.1401L60.9498 41.1865L56.54 39.1354C56.0166 38.8889 55.5437 38.7944 55.1213 38.8519C54.7027 38.889 54.2268 39.0894 53.6938 39.4532L52.7489 40.0981L55.8619 44.6591ZM52.0894 32.7706L49.1275 34.7922L51.3227 38.0085L54.2846 35.9869C55.5687 35.1105 55.8469 34.1393 55.1193 33.0732C54.3835 31.9951 53.3735 31.8942 52.0894 32.7706Z" fill="white"/>
<path d="M89.6671 33.9798C87.4232 33.995 85.6364 33.2958 84.3068 31.8821C82.977 30.4538 82.3047 28.647 82.2899 26.4617C82.275 24.2764 82.9228 22.468 84.2331 21.0364C85.5433 19.5901 87.3204 18.8594 89.5643 18.8441C91.1336 18.8335 92.4855 19.1983 93.6198 19.9386C94.7541 20.6642 95.6118 21.6851 96.1927 23.0012L93.5234 25.1754C93.282 24.1797 92.8292 23.376 92.165 22.7645C91.5008 22.153 90.6334 21.8509 89.5628 21.8582C88.3015 21.8668 87.3363 22.2913 86.6674 23.1319C85.9983 23.9578 85.6684 25.0601 85.6778 26.4387C85.6872 27.8173 86.032 28.9223 86.7124 29.7537C87.3926 30.5705 88.3634 30.9746 89.6247 30.966C90.6953 30.9587 91.5585 30.6448 92.2143 30.0244C92.8701 29.4039 93.312 28.5942 93.5398 27.5953L96.2384 29.733C95.6754 31.0569 94.8318 32.0966 93.7076 32.8523C92.5832 33.5933 91.2364 33.9691 89.6671 33.9798Z" fill="white"/>
<path d="M102.796 35.5509L99.7838 34.6425L104.04 20.5303L110.59 22.5059C112.191 22.9887 113.357 23.7462 114.087 24.7784C114.832 25.8148 114.986 27.0562 114.55 28.5025C114.185 29.7101 113.534 30.5479 112.597 31.0157C111.663 31.4695 110.572 31.5845 109.322 31.3607C109.799 31.6578 110.157 32.0187 110.397 32.4433C110.655 32.8581 110.87 33.3901 111.041 34.0394L112.169 38.3777L108.693 37.3296L107.52 32.6098C107.383 32.0477 107.16 31.6203 106.85 31.3276C106.558 31.0252 106.103 30.7808 105.486 30.5944L104.39 30.2641L102.796 35.5509ZM109.678 25.1492L106.245 24.1137L105.121 27.8419L108.554 28.8773C110.042 29.3262 110.973 28.9328 111.346 27.6971C111.723 26.4474 111.167 25.5981 109.678 25.1492Z" fill="white"/>
<path d="M124.16 46.0451L115.052 40.1978L123.014 27.7937L132.123 33.641L130.614 35.9922L124.153 31.8445L122.477 34.4549L127.883 37.9252L126.373 40.2764L120.967 36.8061L119.208 39.5461L125.67 43.6939L124.16 46.0451Z" fill="white"/>
<path d="M128.412 50.277L126.219 47.752L140.97 42.2576L143.624 45.3141L136.114 59.1477L133.849 56.5396L135.56 53.5101L131.666 49.0249L128.412 50.277ZM137.438 46.7807L134.296 47.9939L136.936 51.0338L138.592 48.1096L140.374 45.3969L137.438 46.7807Z" fill="white"/>
<path d="M140.135 68.1497L138.824 65.29L149.683 60.3108L147.849 56.3112L150.389 55.1467L155.368 66.0055L152.828 67.1701L150.994 63.1705L140.135 68.1497Z" fill="white"/>
<path d="M143.308 78.9244L142.628 75.8528L157.019 72.6658L157.7 75.7374L143.308 78.9244Z" fill="white"/>
<path d="M144.214 92.5731L144.249 88.5472L159.034 83.4392L159.002 87.135L151.038 89.5961L146.321 90.6333L151.019 91.774L158.939 94.3728L158.908 97.9366L144.214 92.5731Z" fill="white"/>
<path d="M140.176 110.985L143.235 100.602L157.374 104.767L154.316 115.149L151.636 114.36L153.805 106.995L150.829 106.118L149.014 112.281L146.334 111.491L148.149 105.329L145.026 104.409L142.857 111.774L140.176 110.985Z" fill="white"/>
<path d="M126.722 129.654L129.084 127.576L138.82 138.643L134.228 142.683C132.873 143.874 131.498 144.498 130.102 144.554C128.705 144.631 127.42 144.003 126.248 142.671C125.095 141.36 124.64 140.022 124.883 138.655C125.136 137.3 125.946 136.021 127.311 134.82L129.541 132.858L126.722 129.654ZM132.465 140.512L134.612 138.623L131.387 134.956L129.239 136.845C127.841 138.075 127.669 139.291 128.725 140.491C129.82 141.735 131.067 141.743 132.465 140.512Z" fill="white"/>
<path d="M115.039 138.126L118.08 136.734L119.191 152.436L115.51 154.12L104.356 143.013L107.497 141.576L109.921 144.072L115.322 141.601L115.039 138.126ZM115.847 147.772L115.57 144.415L111.909 146.09L114.247 148.504L116.347 150.979L115.847 147.772Z" fill="white"/>
<path d="M98.1253 143.846L101.245 143.44L103.147 158.056L96.3619 158.939C94.7039 159.155 93.3303 158.942 92.241 158.3C91.1371 157.659 90.4878 156.59 90.2929 155.092C90.1301 153.841 90.3805 152.81 91.0441 151.999C91.7096 151.203 92.6582 150.65 93.8901 150.342C93.3331 150.267 92.8582 150.085 92.4657 149.795C92.0604 149.523 91.6464 149.126 91.2235 148.604L88.4171 145.109L92.0168 144.64L95.0213 148.465C95.3765 148.921 95.7555 149.22 96.1583 149.359C96.5484 149.516 97.0634 149.552 97.7033 149.469L98.8378 149.321L98.1253 143.846ZM96.1105 156.154L99.6666 155.692L99.1642 151.83L95.6081 152.293C94.0665 152.493 93.3789 153.234 93.5454 154.514C93.7138 155.808 94.5689 156.355 96.1105 156.154Z" fill="white"/>
<path d="M78.449 143.644L81.5605 144.109L79.7942 155.924L84.1458 156.575L83.7327 159.338L71.918 157.572L72.3311 154.808L76.6828 155.459L78.449 143.644Z" fill="white"/>
<path d="M67.9091 140.516L70.7737 141.817L64.6803 155.238L61.8958 153.974L60.3113 144.798L60.0443 142.14L58.7876 145.387L56.0865 151.336L53.2219 150.036L59.3153 136.614L62.0397 137.851L63.7171 147.142L64.0187 149.671L65.308 146.245L67.9091 140.516Z" fill="white"/>
<path d="M48.1284 127.277L56.3794 134.282L46.8391 145.519L38.5881 138.513L40.3965 136.383L46.2493 141.353L48.2571 138.988L43.3601 134.83L45.1685 132.7L50.0655 136.858L52.1729 134.376L46.32 129.407L48.1284 127.277Z" fill="white"/>
<path d="M43.9931 121.751L45.741 124.367L33.4852 132.556L29.6839 126.867C28.755 125.477 28.3366 124.151 28.4288 122.89C28.5129 121.617 29.183 120.561 30.439 119.721C31.4878 119.021 32.5228 118.788 33.5441 119.023C34.5531 119.265 35.469 119.871 36.2918 120.838C36.1122 120.305 36.0649 119.799 36.1498 119.319C36.2144 118.835 36.3867 118.287 36.6667 117.677L38.5539 113.611L40.5707 116.629L38.4764 121.019C38.2247 121.54 38.1256 122.012 38.1789 122.435C38.2119 122.853 38.4076 123.331 38.7662 123.868L39.4018 124.819L43.9931 121.751ZM32.0681 125.406L34.0605 128.388L37.2982 126.225L35.3058 123.243C34.4421 121.95 33.4737 121.663 32.4005 122.38C31.3152 123.105 31.2044 124.114 32.0681 125.406Z" fill="white"/>
<rect x="2" y="2" width="176" height="176" rx="88" stroke="url(#paint0_linear_220_28)" stroke-width="4"/>
<defs>
<linearGradient id="paint0_linear_220_28" x1="6.64607e-06" y1="89.9998" x2="180" y2="107.5" gradientUnits="userSpaceOnUse">
<stop stop-color="#5836EB"/>
<stop offset="1" stop-color="#7C249B"/>
</linearGradient>
</defs>
</svg>
